<svg width="62" height="19" viewBox="0 0 62 19" fill="none" xmlns="http://www.w3.org/2000/svg">
<path fill-rule="evenodd" clip-rule="evenodd" d="M57.9234 0.328714L54.0316 0.328714C52.8229 0.328714 51.9171 0.65105 51.3922 1.8356L43.9051 18.4399L49.1951 18.4399C49.1951 18.4399 50.062 16.2073 50.2596 15.7167C50.8348 15.7167 55.9807 15.7294 56.7147 15.7294C56.8605 16.3629 57.3223 18.4399 57.3223 18.4399H61.9999L57.9234 0.328714ZM51.7083 12.0138C52.1264 10.9721 53.7142 6.9469 53.7142 6.9469C53.6899 6.99612 54.1257 5.89891 54.385 5.21613L54.7268 6.78017C54.7268 6.78017 55.6893 11.1023 55.8918 12.0138H51.7083ZM44.2583 12.5108C44.2211 16.2756 40.7845 18.7066 35.4864 18.7066C33.2277 18.6828 31.0501 18.2477 29.8674 17.7396L30.5754 13.6826L31.2267 13.9748C32.8859 14.6512 33.9552 14.9227 35.974 14.9227C37.4242 14.9227 38.9747 14.3654 38.9861 13.1491C38.9925 12.3552 38.3347 11.7915 36.3726 10.9038C34.4624 10.0353 31.9299 8.58398 31.9623 5.97989C31.9866 2.45642 35.4993 0 40.4799 0C42.4307 0 43.9926 0.390614 44.9939 0.762174L44.3102 4.68896L43.8533 4.47777C42.9297 4.11256 41.734 3.75847 40.0813 3.78388C38.1128 3.78388 37.1957 4.59051 37.1957 5.34633C37.1892 6.18949 38.2651 6.75477 40.0246 7.59157C42.9362 8.8825 44.2842 10.4513 44.2583 12.5108ZM0 0.520869L0.0631892 0.155661L7.87921 0.155661C8.93075 0.192182 9.77813 0.520869 10.0763 1.62443L11.7726 9.63202C10.1006 5.44642 6.08237 1.95947 0 0.520869ZM22.7902 0.328714L14.8543 18.416L9.51883 18.4224L5.00647 3.31231C8.25343 5.34636 11.0127 8.57131 11.9865 10.8229L12.513 12.6902L17.4499 0.328714L22.7902 0.328714ZM24.8286 0.309648L29.8675 0.309648L26.7146 18.4335H21.6772L24.8286 0.309648Z" fill="white"/>
<path fill-rule="evenodd" clip-rule="evenodd" d="M0 0.57283L0.0669665 0.185791L8.35021 0.185791C9.4646 0.224495 10.3626 0.57283 10.6786 1.74236L12.4764 10.2286C10.7043 5.79281 6.44596 2.09743 0 0.57283Z" fill="#EF9B1D"/>
</svg>
